# xmcd
# 
# Track frame offsets:
#     150
#     20575
#     41263
#     62392
#     92439
#     118285
#     147851
#     169044
#     183734
#     202808
#     226001
#     236349
#     261029
#     273392
#     288702
#     303396
#     323029
# 
# Disc length: 4524
# 
# Revision: 0
# Processed by: cddbd v1.5.2PL0 Copyright (c) Steve Scherf et al.
# Submitted via: fre:ac v1.0.31
# 
DISCID=e411aa11
DTITLE=Blues - Stress Relief Disc 4
DYEAR=0
DGENRE=Blues
TTITLE0=Shoot 'Em Up
TTITLE1=What You Got
TTITLE2=Stepping Stone
TTITLE3=Siddharta's Train
TTITLE4=No Stranger
TTITLE5=Running Gun
TTITLE6=Close The Door Lightly
TTITLE7=I Gambled my Life On Rock'N Roll
TTITLE8=The Devil Won't Let Me Go
TTITLE9=The Blues Are Good For You
TTITLE10=Freedom Jazz Dance
TTITLE11=Last Man Out
TTITLE12=Bad Boy Shuffle
TTITLE13=Ain't Lookin' Back
TTITLE14=24 Hours
TTITLE15=Hard Times Come No More
TTITLE16=Amazing Grace
EXTD=
EXTT0=
EXTT1=
EXTT2=
EXTT3=
EXTT4=
EXTT5=
EXTT6=
EXTT7=
EXTT8=
EXTT9=
EXTT10=
EXTT11=
EXTT12=
EXTT13=
EXTT14=
EXTT15=
EXTT16=
PLAYORDER=
